<svg id="Layer_1" data-name="Layer 1" xmlns="http://www.w3.org/2000/svg" viewBox="0 0 234.56 234.56"><defs><style>.cls-1{fill:#fff;}</style></defs><path class="cls-1" d="M0,0H234.56V234.56H0ZM132.45,171.17a11.39,11.39,0,0,0,2.6-.15,24.59,24.59,0,0,0,3.84-1.49c2.26-1.08,4.51-2.19,6.69-3.45a54.26,54.26,0,0,0,9.13-6.77,40.66,40.66,0,0,0,4.35-4.54c1.23-1.5,2.39-3.05,3.56-4.59a40,40,0,0,0,3.41-5.6c.87-1.66,1.67-3.35,2.44-5.05.33-.71.48-1.5.77-2.23.43-1.1.73-2.25,1.08-3.38a43.74,43.74,0,0,0,1.16-4.94,13.65,13.65,0,0,1,.37-2.23,9.36,9.36,0,0,0,.25-2.13,12.52,12.52,0,0,0,.3-2.25c-.13-3.2.34-6.41-.28-9.6-.24-1.26-.06-2.61-.38-3.83-.42-1.58-.77-3.18-1.17-4.76-.32-1.25-.81-2.44-1.13-3.69a20.55,20.55,0,0,0-1.44-3.7c-1-2.1-2-4.16-3.19-6.18A44.51,44.51,0,0,0,159,82.39a55,55,0,0,0-8.25-7.73,63,63,0,0,0-7.83-5,44.87,44.87,0,0,0-6.44-2.91,11.85,11.85,0,0,1-2.66-.87c-.85-.51-1.89-.3-2.66-.92-1.24.08-2.33-.58-3.55-.7a6.05,6.05,0,0,1-2.08-.31,6.1,6.1,0,0,0-2.13-.26,19.15,19.15,0,0,0-2.26-.3c-1.64,0-3.29,0-4.94,0a34.63,34.63,0,0,0-5,.25c-1.5.24-3,.42-4.51.67A51.18,51.18,0,0,0,100.17,66a43.13,43.13,0,0,0-6.71,2.65c-1.85.93-3.66,2-5.45,3a49.75,49.75,0,0,0-7.77,5.78A42.07,42.07,0,0,0,74.88,83a65.39,65.39,0,0,0-4.28,5.88,44.6,44.6,0,0,0-3.81,7c-.45,1.14-1,2.24-1.45,3.38a31.12,31.12,0,0,0-1.23,3.47c-.51,1.93-1,3.86-1.34,5.83-.15.91-.16,1.87-.38,2.72a14.34,14.34,0,0,0-.24,2.12,12.52,12.52,0,0,0-.3,2.25c.11,2.67-.36,5.35.29,8,.19.79-.12,1.6.27,2.44a8.81,8.81,0,0,1,.31,2.4,42.09,42.09,0,0,0,1.41,6.14A34.88,34.88,0,0,0,66.55,141c1.06,2.06,2.06,4.14,3.19,6.17,1.39,2.48,3.28,4.57,4.82,6.92a9.19,9.19,0,0,0,1.12,1.13c.35.37.8.67.9,1.22.67,0,.53.77,1,1a3.74,3.74,0,0,1,1.2.91c.3.38.69.64,1,1a53.63,53.63,0,0,0,5.33,4.42,42.46,42.46,0,0,0,5.58,3.52A36.07,36.07,0,0,0,96.55,170c3.11,1.09,2.06,1.2,5.25,1.13a3.23,3.23,0,0,0,1.78-3.22c0-1.49-.09-3,0-4.46s-.36-2.88-.34-4.33v-1.25c-.24.26-.31.4-.38.41-1,0-1.87.47-2.86.43-1.22,0-2.45-.07-3.66,0a11.7,11.7,0,0,1-4.2-.66,11.08,11.08,0,0,1-7.34-6.23c-.58-1.32-1.25-2.56-1.92-3.83a12,12,0,0,0-3.47-3.91,23.15,23.15,0,0,1-2.94-2.45V141l1.15-.72a11.23,11.23,0,0,1,3.19.29,12.59,12.59,0,0,1,5.37,3.56c.92,1,1.5,2.25,2.36,3.33A9.59,9.59,0,0,0,92.81,151a11,11,0,0,0,4.82,1c.44,0,.89-.34,1.3-.28a7.14,7.14,0,0,0,2.26-.38,13.54,13.54,0,0,0,2.31-.83,15.67,15.67,0,0,1,3.28-7.29,5.85,5.85,0,0,0-1.39-.43,28.28,28.28,0,0,1-3.88-.64,39.76,39.76,0,0,1-6.6-2.15,18.92,18.92,0,0,1-4.7-2.87A19.22,19.22,0,0,1,85.1,131a26.69,26.69,0,0,1-2.81-8.85,33.29,33.29,0,0,1-.42-5.92,31.4,31.4,0,0,1,.65-5.79,22.17,22.17,0,0,1,2-5.39,32.17,32.17,0,0,1,3.06-4.25c-.78-1.53-.67-3.24-1.06-4.83s.13-3.29.24-4.9A24.39,24.39,0,0,1,88,86.46c.63-.18,1.06-.55,1.6-.41a11.29,11.29,0,0,0,1.14.31c.42,0,.92-.12,1.25,0,.73.39,1.62.25,2.27.67s1.52.49,2.19.89c2,1.19,4.21,2,6.06,3.46a2.15,2.15,0,0,0,2,.25,8.67,8.67,0,0,1,2.48-.55,11,11,0,0,0,2.4-.38,21.17,21.17,0,0,0,2.11-.28,5.49,5.49,0,0,1,2.11-.28h7.65c.32,0,.77-.13.93,0,.57.55,1.21.17,1.81.29s1.18.23,1.78.31c.94.13,1.86.38,2.79.56s1.94.73,2.6.47c1.45-.91,2.51-1.68,3.65-2.28a31.18,31.18,0,0,1,7.21-3c.63-.16,1.32,0,1.8-.25a2.27,2.27,0,0,1,2.4.14,23.5,23.5,0,0,1,1.66,7.14,22.25,22.25,0,0,1-1,7.45,20,20,0,0,1,4.52,7.68,15.55,15.55,0,0,1,1,6c-.14,2.24.13,4.48-.26,6.74a40.93,40.93,0,0,1-.8,4.31,27.74,27.74,0,0,1-2.28,5.58,14.68,14.68,0,0,1-2.07,3,36,36,0,0,1-3.16,3.14,14.32,14.32,0,0,1-2.64,1.7,23,23,0,0,1-3.08,1.39,26.53,26.53,0,0,1-6,1.7,19,19,0,0,1-2.79.52,3.75,3.75,0,0,0-1.73.46,15.1,15.1,0,0,0,.93,1.33,7.5,7.5,0,0,1,1.57,3c.16.57.42,1.11.55,1.69a15.71,15.71,0,0,1,.23,1.81c.07.62.16,1.23.17,1.85,0,1.7,0,3.4,0,5.09v11.72Z"/></svg>