<svg id="Layer_1" data-name="Layer 1" xmlns="http://www.w3.org/2000/svg" viewBox="0 0 95.09 351.71"><defs><style>.cls-1{fill:#fff;}</style></defs><path class="cls-1" d="M25.13,16.16v46.2H18.72V16.16H2.7V10.54H41.14v5.62Z" transform="translate(-2.7 -10.54)"/><path class="cls-1" d="M13.63,108.92,9.47,122.33H2.88L19.61,70.51h5.52l16.44,51.82H35l-4.09-13.41Zm15.55-5.73-6.83-22.5-6.94,22.5Z" transform="translate(-2.7 -10.54)"/><path class="cls-1" d="M32.23,165.19a10,10,0,0,0-2.8-2.77,18.7,18.7,0,0,0-3.75-1.85c-1.37-.5-2.68-.95-3.94-1.36a57.14,57.14,0,0,1-5.57-2.15A25.14,25.14,0,0,1,11,154a15.29,15.29,0,0,1-3.82-4.29,11.09,11.09,0,0,1-1.48-5.82,12,12,0,0,1,1.48-6,14.35,14.35,0,0,1,3.86-4.45,17.4,17.4,0,0,1,5.41-2.76,20.55,20.55,0,0,1,6.08-.94,19.14,19.14,0,0,1,6.52,1.12,18.27,18.27,0,0,1,5.55,3.15A15.56,15.56,0,0,1,38.51,139,14.84,14.84,0,0,1,40,145.41H33.28a14.22,14.22,0,0,0-1.11-4.08A10.06,10.06,0,0,0,30,138.18a9.49,9.49,0,0,0-3.22-2.05,11.67,11.67,0,0,0-4.22-.73,12.76,12.76,0,0,0-3.68.54,9.67,9.67,0,0,0-3.19,1.6,7.94,7.94,0,0,0-2.26,2.63,7.71,7.71,0,0,0-.83,3.63,6.47,6.47,0,0,0,1.14,3.79,9.54,9.54,0,0,0,2.81,2.62A17.91,17.91,0,0,0,20.2,152c1.31.47,2.55.89,3.72,1.25a53.83,53.83,0,0,1,5.76,2.15A22.62,22.62,0,0,1,35,158.61a14.15,14.15,0,0,1,3.79,4.45,12.45,12.45,0,0,1,1.44,6.08,11.68,11.68,0,0,1-1.55,6.09,13.74,13.74,0,0,1-4,4.31,18,18,0,0,1-5.55,2.61,22.85,22.85,0,0,1-6.2.87,22.06,22.06,0,0,1-7.28-1.24,18.23,18.23,0,0,1-6.21-3.6,15.26,15.26,0,0,1-3.71-4.75,14.19,14.19,0,0,1-1.48-6.07h6.72a12.7,12.7,0,0,0,1.32,4.29,10.28,10.28,0,0,0,2.56,3.15,10.62,10.62,0,0,0,3.62,2,14.44,14.44,0,0,0,4.46.66,15.15,15.15,0,0,0,3.79-.48A9.94,9.94,0,0,0,30,175.44a8.07,8.07,0,0,0,2.39-2.54,7.1,7.1,0,0,0,.92-3.68A7.19,7.19,0,0,0,32.23,165.19Z" transform="translate(-2.7 -10.54)"/><path class="cls-1" d="M12.85,224.78v17.51H6.12V190.47h6.73v25.31l5-6.27,15.19-19h8L23,213.14l19.33,29.15h-8L18.61,218.23Z" transform="translate(-2.7 -10.54)"/><path class="cls-1" d="M69.22,41.22V62.36H62.67V10.54h15.2a25.15,25.15,0,0,1,6.83,1,16.62,16.62,0,0,1,5.62,2.88,13.59,13.59,0,0,1,3.76,4.82,15.9,15.9,0,0,1,1.37,6.82,14.23,14.23,0,0,1-.73,4.63,13.94,13.94,0,0,1-2,3.8,15.16,15.16,0,0,1-3.06,3,19.77,19.77,0,0,1-3.92,2.24l11,22.14,0,.43H89.75L79.57,41.22ZM78,35.81a13.91,13.91,0,0,0,4.17-.7,10.72,10.72,0,0,0,3.45-1.9A9.1,9.1,0,0,0,88,30.16,9.51,9.51,0,0,0,88.83,26,10.87,10.87,0,0,0,88,21.66a8.88,8.88,0,0,0-2.28-3.15,9.94,9.94,0,0,0-3.47-1.89A14.91,14.91,0,0,0,77.87,16H69.22V35.81Z" transform="translate(-2.7 -10.54)"/><path class="cls-1" d="M69.86,108.92l-4.17,13.41H59.11L75.84,70.51h5.51L97.8,122.33H91.25l-4.09-13.41Zm15.55-5.73-6.83-22.5-6.94,22.5Z" transform="translate(-2.7 -10.54)"/><path class="cls-1" d="M62.35,130.49H77.76a26.3,26.3,0,0,1,6.26.84,16.84,16.84,0,0,1,5.45,2.47,12,12,0,0,1,5.19,10.5A11.12,11.12,0,0,1,94,148a10.54,10.54,0,0,1-1.69,3,11.88,11.88,0,0,1-2.44,2.28A19.16,19.16,0,0,1,86.66,155v.1a11.78,11.78,0,0,1,3.77,1.67,13.26,13.26,0,0,1,3,2.67,12.5,12.5,0,0,1,1.94,3.6,13.05,13.05,0,0,1,.69,4.3,13.45,13.45,0,0,1-1.39,6.41,13.73,13.73,0,0,1-3.8,4.63,17.17,17.17,0,0,1-5.5,2.88,21.46,21.46,0,0,1-6.43,1H62.35Zm15.8,22.1a12.87,12.87,0,0,0,3.63-.58A10.11,10.11,0,0,0,85,150.39a8.11,8.11,0,0,0,2.24-2.56,7.18,7.18,0,0,0,.85-3.56,7.65,7.65,0,0,0-.83-3.71A7.51,7.51,0,0,0,85,138a10.3,10.3,0,0,0-3.25-1.43,16.92,16.92,0,0,0-3.76-.49H69v16.47ZM69,176.73H79.11A12.42,12.42,0,0,0,83,176a10.88,10.88,0,0,0,3.27-1.83,8.51,8.51,0,0,0,3.1-6.76,9.21,9.21,0,0,0-.73-3.92,8.61,8.61,0,0,0-2.12-2.92,9.61,9.61,0,0,0-3.17-1.81,12.68,12.68,0,0,0-3.91-.71H69Z" transform="translate(-2.7 -10.54)"/><path class="cls-1" d="M62.35,190.47H77.76a25.8,25.8,0,0,1,6.26.84,16.84,16.84,0,0,1,5.45,2.47,12,12,0,0,1,5.19,10.5A11.12,11.12,0,0,1,94,208a10.68,10.68,0,0,1-1.69,3,12.16,12.16,0,0,1-2.44,2.28A18.47,18.47,0,0,1,86.66,215v.11a11.78,11.78,0,0,1,3.77,1.67,13.26,13.26,0,0,1,3,2.67,12.5,12.5,0,0,1,1.94,3.6,13.05,13.05,0,0,1,.69,4.3,13.48,13.48,0,0,1-1.39,6.41,13.73,13.73,0,0,1-3.8,4.63,17.58,17.58,0,0,1-5.5,2.88,21.79,21.79,0,0,1-6.43,1H62.35Zm15.8,22.1a13.23,13.23,0,0,0,3.63-.58A10.11,10.11,0,0,0,85,210.37a8.15,8.15,0,0,0,2.24-2.57,7.16,7.16,0,0,0,.85-3.56,7.6,7.6,0,0,0-.83-3.7A7.42,7.42,0,0,0,85,198a10.3,10.3,0,0,0-3.25-1.43,16.93,16.93,0,0,0-3.76-.5H69v16.48ZM69,236.7H79.11A12.14,12.14,0,0,0,83,236a10.88,10.88,0,0,0,3.27-1.83,8.55,8.55,0,0,0,3.1-6.77,9.16,9.16,0,0,0-.73-3.91,8.61,8.61,0,0,0-2.12-2.92,9.61,9.61,0,0,0-3.17-1.81,13,13,0,0,0-3.91-.72H69Z" transform="translate(-2.7 -10.54)"/><path class="cls-1" d="M93.74,250.45v5.73H81.32v40.4H93.74v5.69H62.42v-5.69H74.56v-40.4H62.42v-5.73Z" transform="translate(-2.7 -10.54)"/><path class="cls-1" d="M81.35,316.05v46.2H75v-46.2h-16v-5.62H97.37v5.62Z" transform="translate(-2.7 -10.54)"/></svg>